<svg xmlns="http://www.w3.org/2000/svg" width="800" height="450" viewBox="0 0 800 450" role="img" aria-label="Ilustrasi Moving Average">
  <rect width="800" height="450" fill="#0b0e11"/>
  <rect x="48" y="56" width="704" height="300" rx="8" fill="#141a20" stroke="#f0b90b" stroke-opacity="0.4"/>
  <polyline fill="none" stroke="#f0b90b" stroke-width="2.5" stroke-linecap="round"
    points="72,300 120,290 180,270 240,250 300,260 360,230 420,240 480,200 540,220 600,180 660,200 728,175"/>
  <polyline fill="none" stroke="#2ebd85" stroke-width="2.5" stroke-linecap="round"
    points="72,320 130,310 190,300 250,280 310,290 370,260 430,270 490,230 550,250 610,210 670,230 728,205"/>
  <text x="400" y="40" text-anchor="middle" fill="#eaecef" font-family="system-ui,sans-serif" font-size="22" font-weight="600">Persilangan Moving Average</text>
  <text x="400" y="400" text-anchor="middle" fill="#848e9c" font-family="system-ui,sans-serif" font-size="13">PipHunter · GMR FX · contoh visual</text>
</svg>
